#!OML:ASF F:\VICON\USERDATA\INSTALL\rory3\rory3.ASF
:FULLY-SPECIFIED
:DEGREES
240
root 4.77875 17.2309 2.79724 14.3527 -6.89377 -7.729
lowerback -0.577453 -1.65968 5.13094
upperback -4.35462 -2.04528 2.70735
thorax -4.26231 -1.15867 -0.00342581
lowerneck -11.9013 1.22401 -1.95186
upperneck 40.5648 1.46195 1.86706
head 16.572 0.468835 1.40379
rclavicle -2.39411e-014 -1.39149e-014
rhumerus -5.81082 -3.0614 -7.33799
rradius 106.583
rwrist -43.3569
rhand -1.60595 -41.2343
rfingers 7.12502
rthumb 24.0513 -69.7472
lclavicle -2.39411e-014 -1.39149e-014
lhumerus 18.5263 19.0754 -2.02399
lradius 32.5798
lwrist 32.4622
lhand -25.3948 -20.5429
lfingers 7.12502
lthumb 1.13026 9.43385
rfemur -27.8642 9.55765 4.86995
rtibia 50.3975
rfoot 19.8005 -8.32172
rtoes -6.07432
lfemur -30.1552 0.367323 -20.8951
ltibia 36.5045
lfoot -18.4898 7.13949
ltoes 15.7786
241
root 4.78073 17.2274 2.78683 14.3008 -6.9705 -7.76878
lowerback -0.36436 -1.68372 5.07193
upperback -4.26618 -2.06647 2.72279
thorax -4.28836 -1.1658 0.0508656
lowerneck -12.2587 1.1964 -1.85147
upperneck 40.8552 1.4648 1.69389
head 16.8266 0.45509 1.31969
rclavicle -1.38652e-014 -3.24019e-014
rhumerus -6.03568 -2.8418 -7.59821
rradius 106.489
rwrist -43.44
rhand -1.63163 -41.4093
rfingers 7.12502
rthumb 24.0267 -69.9254
lclavicle -1.38652e-014 -3.24019e-014
lhumerus 18.4181 19.3887 -1.68808
lradius 32.4162
lwrist 31.8904
lhand -24.8802 -20.3877
lfingers 7.12502
lthumb 1.62731 9.58582
rfemur -28.4846 9.3316 5.07482
rtibia 51.4075
rfoot 19.644 -8.81524
rtoes -4.66236
lfemur -30.2035 0.468717 -20.8869
ltibia 36.6228
lfoot -18.4732 7.21407
ltoes 15.5029
242
root 4.7849 17.2281 2.78113 14.2837 -7.03641 -7.84289
lowerback -0.213595 -1.72071 5.06699
upperback -4.18975 -2.10799 2.74121
thorax -4.29465 -1.1849 0.0773648
lowerneck -12.7296 1.15713 -1.60811
upperneck 41.229 1.4752 1.35302
head 17.1656 0.441532 1.13669
rclavicle -2.12078e-014 1.5704e-014
rhumerus -6.11804 -2.53142 -8.07085
rradius 106.243
rwrist -43.0591
rhand -2.21914 -41.9035
rfingers 7.12502
rthumb 23.4632 -70.4928
lclavicle -2.12078e-014 1.5704e-014
lhumerus 17.8556 18.6122 -2.05375
lradius 32.72
lwrist 32.8318
lhand -26.3858 -20.5367
lfingers 7.12502
lthumb 0.173119 9.44297
rfemur -29.1291 9.07973 5.33692
rtibia 52.4369
rfoot 19.787 -9.27902
rtoes -4.75643
lfemur -30.2317 0.484462 -20.8407
ltibia 36.6778
lfoot -18.439 7.35727
ltoes 15.0962
243
root 4.79124 17.2307 2.77821 14.3243 -7.04316 -7.89041
lowerback -0.19819 -1.74845 5.10974
upperback -4.12674 -2.1461 2.73937
thorax -4.24084 -1.20374 0.0519493
lowerneck -12.9261 1.10718 -1.32532
upperneck 41.3201 1.47947 0.944147
head 17.2786 0.428141 0.90384
rclavicle 3.64024e-015 -3.79679e-014
rhumerus -6.25805 -2.25886 -8.49968
rradius 105.929
rwrist -42.3454
rhand -2.59422 -41.8923
rfingers 7.12502
rthumb 23.1034 -70.5271
lclavicle 3.64024e-015 -3.79679e-014
lhumerus 16.6476 16.5771 -3.27855
lradius 33.7363
lwrist 34.9556
lhand -27.204 -20.3889
lfingers 7.12502
lthumb -0.617075 9.58991
rfemur -29.8007 8.68528 5.58805
rtibia 53.5034
rfoot 19.8425 -9.81334
rtoes -5.67653
lfemur -30.3009 0.383192 -20.8064
ltibia 36.7082
lfoot -18.4074 7.51544
ltoes 14.8873
244
root 4.79899 17.2333 2.77892 14.3438 -7.01105 -7.93144
lowerback -0.30878 -1.7732 5.20044
upperback -4.02786 -2.19025 2.74095
thorax -4.08034 -1.22498 -0.00204791
lowerneck -12.8167 1.07079 -1.30319
upperneck 41.2307 1.47446 0.79374
head 17.2022 0.409582 0.827894
rclavicle 4.13721e-014 -3.89618e-014
rhumerus -6.25209 -2.15024 -8.87911
rradius 105.497
rwrist -41.9368
rhand -2.32025 -41.3255
rfingers 7.12502
rthumb 23.3662 -69.9272
lclavicle 4.13721e-014 -3.89618e-014
lhumerus 16.9702 17.8842 -2.32274
lradius 33.0895
lwrist 33.053
lhand -25.2998 -20.5649
lfingers 7.12502
lthumb 1.22197 9.41133
rfemur -30.4222 8.21953 5.86183
rtibia 54.6326
rfoot 19.8372 -10.3417
rtoes -6.59927
lfemur -30.3394 0.274763 -20.7824
ltibia 36.7413
lfoot -18.3713 7.61756
ltoes 14.8217
245
root 4.80801 17.2311 2.78084 14.2944 -7.02245 -7.92883
lowerback -0.402083 -1.7804 5.23998
upperback -3.86673 -2.21414 2.73179
thorax -3.8621 -1.23248 -0.0409391
lowerneck -12.7962 1.02182 -1.57327
upperneck 41.2458 1.39034 1.01469
head 17.2007 0.36254 0.962056
rclavicle -1.25856e-014 4.1546e-014
rhumerus -6.31847 -1.96468 -9.17693
rradius 105.14
rwrist -41.7332
rhand -2.26049 -40.9533
rfingers 7.12502
rthumb 23.4235 -69.5477
lclavicle -1.25856e-014 4.1546e-014
lhumerus 16.9106 18.3684 -1.86692
lradius 32.9151
lwrist 32.4144
lhand -24.6006 -20.6673
lfingers 7.12502
lthumb 1.89732 9.30397
rfemur -30.9813 7.7272 6.0969
rtibia 55.8376
rfoot 19.7195 -10.9026
rtoes -7.99434
lfemur -30.292 0.236547 -20.8349
ltibia 36.7856
lfoot -18.3892 7.65694
ltoes 14.7491
246
root 4.81296 17.2208 2.77484 14.1833 -7.10702 -7.82337
lowerback -0.26879 -1.76188 5.11442
upperback -3.73516 -2.18905 2.68888
thorax -3.7952 -1.21353 -0.015657
lowerneck -12.8512 0.960698 -1.80363
upperneck 41.3568 1.2688 1.25423
head 17.2752 0.307444 1.09347
rclavicle -4.43041e-014 2.62396e-014
rhumerus -6.5991 -1.69741 -9.41154
rradius 104.9
rwrist -41.4098
rhand -2.54135 -41.0411
rfingers 7.12502
rthumb 23.1541 -69.6695
lclavicle -4.43041e-014 2.62396e-014
lhumerus 16.6505 18.0582 -1.79847
lradius 33.0731
lwrist 33.0623
lhand -25.6702 -20.8599
lfingers 7.12502
lthumb 0.864237 9.11805
rfemur -31.6029 7.20821 6.2373
rtibia 57.1381
rfoot 19.6307 -11.5198
rtoes -9.05473
lfemur -30.2241 0.259808 -21.0005
ltibia 36.8565
lfoot -18.4292 7.71666
ltoes 14.6657
247
root 4.81748 17.2172 2.76824 14.0851 -7.17473 -7.81875
lowerback -0.0534918 -1.73132 5.09222
upperback -3.67939 -2.13558 2.67573
thorax -3.85639 -1.1864 -0.0127113
lowerneck -12.7332 0.894848 -1.93579
upperneck 41.3777 1.16909 1.33853
head 17.2567 0.25705 1.13713
rclavicle -2.86747e-014 4.55217e-014
rhumerus -6.86262 -1.49025 -9.62749
rradius 104.622
rwrist -41.2587
rhand -2.48577 -40.9857
rfingers 7.12502
rthumb 23.2074 -69.6075
lclavicle -2.86747e-014 4.55217e-014
lhumerus 16.4813 17.6811 -1.67888
lradius 33.1604
lwrist 33.6838
lhand -26.3753 -20.7571
lfingers 7.12502
lthumb 0.183259 9.22252
rfemur -32.3055 6.68123 6.51909
rtibia 58.4949
rfoot 19.7806 -12.2859
rtoes -8.14592
lfemur -30.183 0.293021 -21.0382
ltibia 36.9658
lfoot -18.4653 7.80082
ltoes 14.9106
248
root 4.8197 17.222 2.76137 14.0399 -7.23775 -8.03568
lowerback 0.128891 -1.67763 5.23841
upperback -3.63207 -2.04791 2.71876
thorax -3.91159 -1.14675 -0.0476074
lowerneck -12.5976 0.824322 -1.99051
upperneck 41.3279 1.07675 1.32982
head 17.1954 0.210359 1.12451
rclavicle -1.29459e-014 -3.57812e-015
rhumerus -7.21335 -1.29494 -9.84255
rradius 104.437
rwrist -41.3225
rhand -2.36599 -41.0338
rfingers 7.12502
rthumb 23.3223 -69.641
lclavicle -1.29459e-014 -3.57812e-015
lhumerus 16.6721 18.024 -1.08395
lradius 32.8879
lwrist 33.0894
lhand -26.2727 -20.476
lfingers 7.12502
lthumb 0.282324 9.5036
rfemur -33.1163 6.26957 7.07293
rtibia 59.9055
rfoot 20.0293 -12.9925
rtoes -6.99935
lfemur -30.214 0.345497 -20.7949
ltibia 37.1095
lfoot -18.4954 7.83278
ltoes 15.2669
249
root 4.81561 17.2203 2.74767 14.0536 -7.39573 -8.27143
lowerback 0.262079 -1.60377 5.30745
upperback -3.5017 -1.9427 2.75677
thorax -3.84817 -1.09285 -0.0500472
lowerneck -12.7461 0.820736 -1.84363
upperneck 41.3209 1.08695 1.19339
head 17.2328 0.219022 1.03916
rclavicle 1.34925e-014 -5.96354e-015
rhumerus -7.61165 -1.22957 -10.1483
rradius 104.285
rwrist -41.338
rhand -2.93782 -41.6176
rfingers 7.12502
rthumb 22.7736 -70.2934
lclavicle 1.34925e-014 -5.96354e-015
lhumerus 16.7698 18.4705 -0.632378
lradius 32.6731
lwrist 32.3482
lhand -25.6916 -20.7438
lfingers 7.12502
lthumb 0.84363 9.23424
rfemur -34.1471 5.96485 7.63338
rtibia 61.4029
rfoot 20.265 -13.3098
rtoes -7.00462
lfemur -30.3503 0.506783 -20.5275
ltibia 37.2688
lfoot -18.4553 7.86552
ltoes 15.155
250
root 4.81136 17.2086 2.73247 14.0241 -7.55579 -8.26914
lowerback 0.405847 -1.5882 5.17136
upperback -3.34112 -1.92283 2.73036
thorax -3.75676 -1.07526 -0.00240398
lowerneck -12.939 0.841721 -1.65235
upperneck 41.2415 1.13329 1.02615
head 17.2404 0.245694 0.937349
rclavicle -6.03808e-015 6.36111e-015
rhumerus -7.85123 -1.21286 -10.4984
rradius 103.995
rwrist -41.3102
rhand -2.82105 -42.0299
rfingers 7.12502
rthumb 22.8857 -70.6918
lclavicle -6.03808e-015 6.36111e-015
lhumerus 16.5217 18.4313 -0.693135
lradius 32.6503
lwrist 32.3083
lhand -25.1528 -21.0487
lfingers 7.12502
lthumb 1.36399 8.92673
rfemur -35.1454 5.49605 7.93692
rtibia 62.998
rfoot 20.4371 -13.3694
rtoes -7.1775
lfemur -30.4505 0.707638 -20.5508
ltibia 37.4314
lfoot -18.4346 7.88347
ltoes 15.0561
